<?xml version="1.0" standalone="no"?>
<!DOCTYPE svg PUBLIC "-//W3C//DTD SVG 20010904//EN"
 "http://www.w3.org/TR/2001/REC-SVG-20010904/DTD/svg10.dtd">
<svg version="1.0" xmlns="http://www.w3.org/2000/svg"
 width="1134.000000pt" height="1134.000000pt" viewBox="0 0 1134.000000 1134.000000"
 preserveAspectRatio="xMidYMid meet">

<g transform="translate(0.000000,1134.000000) scale(0.100000,-0.100000)"
fill="#000000" stroke="none">
<path d="M4425 8528 c-58 -32 -114 -103 -138 -178 -47 -142 -47 -343 1 -675
27 -185 33 -219 43 -231 6 -7 7 -19 3 -25 -4 -7 -3 -9 4 -5 7 4 9 -4 5 -28 -3
-19 -1 -36 6 -40 6 -4 11 -17 12 -29 1 -20 2 -20 9 3 5 17 8 19 9 8 1 -10 6
-18 11 -18 6 0 4 13 -5 30 -9 17 -19 30 -24 30 -4 0 -5 15 -3 33 3 17 7 26 9
20 3 -7 12 -13 20 -13 11 0 13 3 5 13 -8 10 -6 13 8 14 10 1 24 -5 30 -13 7
-7 16 -11 21 -8 16 10 9 -3 -8 -17 -10 -7 -15 -9 -11 -5 9 10 -9 36 -24 36 -6
0 -4 -8 3 -17 10 -11 10 -14 2 -9 -16 9 -17 -6 -1 -22 7 -7 9 -12 5 -12 -3 0
-2 -11 2 -24 7 -17 5 -27 -6 -38 -12 -12 -12 -17 -2 -23 7 -5 10 -4 5 3 -3 6
-2 13 4 17 5 3 10 -2 10 -12 0 -15 2 -15 9 -3 6 8 7 18 4 23 -3 6 -7 24 -9 41
-3 23 -1 27 6 16 9 -13 14 -8 12 12 -1 3 6 12 15 20 14 11 16 11 8 -2 -13 -21
-14 -59 -2 -67 6 -3 7 -2 4 3 -3 6 -1 16 4 24 7 12 8 11 6 -5 -1 -11 -6 -26
-11 -34 -7 -11 -10 -11 -18 3 -5 9 -6 22 -2 29 5 9 4 9 -5 1 -10 -9 -10 -17
-1 -33 6 -12 8 -27 5 -34 -4 -6 1 -3 10 8 18 22 24 23 36 4 5 -8 1 -22 -9 -34
-17 -20 -17 -20 5 -1 13 10 20 23 17 27 -3 5 0 17 6 26 11 16 11 16 6 1 -3
-10 0 -20 5 -24 6 -4 1 -16 -13 -33 l-23 -26 26 23 c20 17 25 31 24 57 -2 20
0 37 4 39 4 3 7 -18 6 -46 0 -27 3 -52 6 -54 4 -2 6 13 6 33 l-1 37 45 1 c41
1 45 -1 46 -24 2 -23 1 -24 -7 -6 -6 15 -8 12 -7 -17 1 -20 5 -34 9 -32 3 2 9
-2 11 -8 4 -9 6 -10 6 -1 1 6 -3 14 -8 18 -6 3 -4 16 4 32 8 15 11 31 8 37 -4
6 3 3 14 -7 11 -9 22 -14 25 -11 3 3 5 -11 4 -31 -2 -42 9 -57 12 -17 2 28 22
46 36 32 11 -11 38 -1 29 13 -3 5 -1 7 5 4 12 -8 10 -32 -3 -44 -4 -4 -5 -2
-1 5 4 6 2 12 -4 12 -7 0 -9 -9 -5 -22 5 -21 5 -21 -9 2 -10 15 -15 19 -16 10
0 -13 -2 -13 -10 0 -6 10 -8 5 -6 -18 1 -17 5 -34 9 -38 3 -4 5 3 2 14 -2 12
0 24 6 27 9 6 12 -3 12 -37 0 -10 4 -15 8 -12 5 3 7 10 4 15 -4 5 -2 9 3 9 17
0 21 -13 11 -34 -8 -17 -6 -16 10 4 11 14 21 29 21 34 0 4 9 -2 20 -15 11 -13
20 -19 19 -14 -3 22 2 25 21 15 12 -6 18 -16 14 -23 -4 -7 -3 -8 1 -4 12 10
15 38 4 32 -5 -4 -6 0 -3 8 4 12 10 10 29 -7 18 -16 21 -25 14 -41 -10 -19
-10 -19 5 -1 9 10 13 23 10 28 -3 5 -7 73 -9 151 -3 173 -12 315 -25 382 -5
28 -12 75 -14 105 -7 72 -33 225 -54 315 -37 159 -150 314 -261 361 -40 17
-147 18 -176 2z m120 -1147 c3 -5 2 -12 -3 -15 -5 -3 -9 1 -9 9 0 17 3 19 12
6z m121 -14 c0 -13 -5 -24 -12 -24 -13 0 -13 15 -1 35 11 17 13 15 13 -11z
m42 10 c-1 -2 4 -12 12 -23 14 -18 14 -18 -2 -5 -17 13 -23 8 -18 -14 1 -5 -2
-7 -6 -2 -4 4 -9 18 -11 30 -2 17 -1 19 7 7 9 -14 15 -6 10 15 -1 6 1 7 5 3 4
-3 5 -8 3 -11z m62 -33 c0 -8 -19 -13 -24 -6 -3 5 1 9 9 9 8 0 15 -2 15 -3z
m-25 -23 c3 -5 2 -12 -3 -15 -5 -3 -9 1 -9 9 0 17 3 19 12 6z m102 -6 c12 0
24 -3 27 -6 3 -3 -8 -5 -24 -4 -17 1 -36 7 -43 15 -10 10 -9 11 3 4 8 -4 25
-8 37 -9z m60 -2 c-4 -3 -1 -13 6 -22 11 -14 10 -14 -5 -2 -16 12 -16 31 -1
31 4 0 3 -3 0 -7z m38 -22 c-2 -9 -4 -18 -5 -21 -1 -3 -2 -9 -1 -13 1 -5 -3
-6 -9 -2 -8 5 -8 11 -1 19 7 8 7 16 0 23 -6 6 -5 10 5 10 7 0 12 -7 11 -16z
m-119 -18 c-5 -15 -4 -15 9 1 11 14 15 16 15 5 0 -11 2 -11 9 -1 7 11 9 11 14
-2 4 -9 6 -19 6 -22 0 -4 5 -11 13 -16 10 -8 9 -9 -3 -5 -9 3 -22 0 -29 -6
-10 -9 -11 -9 -6 1 4 6 4 12 -1 13 -4 0 -16 2 -25 4 -12 2 -15 -2 -11 -13 5
-14 3 -15 -7 -5 -11 11 -11 17 0 38 15 29 25 33 16 8z m75 0 c13 -16 12 -17
-3 -4 -10 7 -18 15 -18 17 0 8 8 3 21 -13z"/>
<path d="M4840 7259 c0 -5 5 -9 10 -9 6 0 12 0 15 0 14 0 8 13 -7 16 -10 1
-18 -2 -18 -7z"/>
<path d="M4385 7371 c18 -36 24 -39 22 -10 -1 11 -10 25 -20 30 -17 10 -17 9
-2 -20z"/>
<path d="M4580 7295 c4 -11 6 -28 5 -37 -2 -10 0 -20 5 -23 4 -2 7 3 6 13 0 9
4 17 9 17 6 0 9 -8 9 -17 -1 -10 2 -15 6 -13 5 3 7 13 5 23 -1 9 1 26 5 37 7
18 4 21 -25 21 -29 0 -32 -3 -25 -21z m17 -7 c-3 -8 -6 -5 -6 6 -1 11 2 17 5
13 3 -3 4 -12 1 -19z m20 0 c-3 -8 -6 -5 -6 6 -1 11 2 17 5 13 3 -3 4 -12 1
-19z"/>
<path d="M4678 7285 c-3 -14 -1 -28 4 -31 4 -3 5 -10 2 -16 -5 -7 -2 -8 5 -3
9 5 9 11 3 17 -6 6 -8 17 -4 26 5 13 7 12 13 -4 6 -15 8 -15 8 -3 1 9 -5 22
-13 28 -11 9 -15 6 -18 -14z"/>
<path d="M2997 7213 c-85 -90 -86 -262 -2 -543 24 -78 133 -298 207 -415 56
-90 121 -182 102 -146 -4 9 -3 12 4 7 6 -4 9 -13 6 -21 -4 -9 3 -18 17 -24 13
-5 18 -10 10 -10 -8 -1 -11 -4 -8 -8 4 -3 17 2 29 13 13 12 18 13 12 4 -4 -8
-10 -26 -11 -40 -1 -14 1 -18 4 -10 3 8 13 21 20 29 12 12 14 12 13 0 -5 -35
1 -43 15 -19 9 15 14 19 15 10 0 -13 1 -13 10 0 5 8 10 10 10 5 0 -6 -6 -17
-12 -24 -11 -11 -10 -13 5 -8 9 4 17 2 17 -4 0 -6 5 -7 10 -4 6 4 7 11 4 17
-4 7 -2 8 5 4 6 -4 10 -10 7 -14 -2 -4 1 -16 5 -27 9 -19 9 -19 5 1 -2 12 1
28 6 35 7 11 8 9 4 -5 -5 -14 -2 -17 9 -12 9 3 13 2 10 -4 -3 -6 1 -10 9 -10
9 0 16 -5 16 -10 0 -7 -8 -7 -22 1 -23 12 -23 12 -3 -8 12 -13 23 -16 27 -10
10 16 39 17 44 2 3 -7 14 -12 24 -10 14 3 17 -2 15 -20 -1 -13 3 -23 9 -22 6
1 10 -4 8 -12 -3 -12 0 -12 12 -1 9 7 16 9 16 4 0 -5 7 0 15 10 11 14 15 16
15 5 0 -11 2 -11 9 -1 7 11 9 10 14 -3 4 -9 3 -14 -2 -11 -4 3 -17 -1 -27 -9
-18 -13 -18 -14 4 -8 13 3 22 1 22 -6 0 -8 4 -8 14 1 8 7 11 18 9 23 -3 6 2 2
12 -7 16 -15 17 -19 4 -35 -13 -16 -12 -17 3 -5 13 10 17 10 22 0 3 -7 4 -2 1
12 -3 14 -2 19 1 12 3 -6 10 -10 15 -7 5 4 6 -2 2 -12 -5 -15 -3 -16 8 -5 7 6
18 12 23 12 6 0 4 -4 -4 -10 -8 -5 -12 -11 -9 -14 2 -3 10 -2 16 2 37 23 -152
555 -322 909 -95 196 -159 295 -248 380 -80 77 -130 103 -200 103 -45 0 -57
-4 -80 -27z m666 -1283 c3 -11 1 -18 -4 -14 -5 3 -9 12 -9 20 0 20 7 17 13 -6z"/>
<path d="M4921 7187 c-13 -21 -12 -21 5 -5 10 10 16 20 13 22 -3 3 -11 -5 -18
-17z"/>
<path d="M3606 5941 c-4 -5 -2 -12 3 -15 5 -4 12 -2 15 3 4 5 2 12 -3 15 -5 4
-12 2 -15 -3z"/>
<path d="M3844 5829 c-4 -7 -3 -9 4 -5 5 3 13 0 15 -6 4 -9 6 -10 6 -1 1 17
-16 25 -25 12z"/>
</g>
</svg>
